<svg width="15" height="16" viewBox="0 0 15 16" fill="none" xmlns="http://www.w3.org/2000/svg">
<path d="M12.9446 1.03182C12.82 0.716667 12.5936 0.486364 12.2524 0.331818L12.072 0.25L7.49528 0.25L2.91861 0.25L2.72177 0.337879C2.46915 0.45303 2.21981 0.683333 2.09514 0.916667L2 1.09848L2 7.75L2 14.4015L2.09514 14.5833C2.21981 14.8167 2.46915 15.047 2.72177 15.1621L2.91861 15.25H7.49528L12.072 15.25L12.2688 15.1621C12.5214 15.047 12.7708 14.8167 12.8954 14.5833L12.9906 14.4015L12.9971 7.79545C13.0037 1.41364 13.0037 1.18333 12.9446 1.03182ZM11.1763 7.50758H9.86728L9.81479 7.27121C9.63106 6.48333 8.94538 5.82879 8.09895 5.62879C7.75446 5.54697 7.2361 5.54697 6.89162 5.62879C6.04519 5.82879 5.3595 6.48636 5.17578 7.27424L5.12329 7.50758H3.81426H2.50524L2.51508 4.41061C2.52492 1.32273 2.52492 1.31061 2.59382 1.17424C2.67912 1.00758 2.83988 0.862121 3.01704 0.789394C3.1253 0.74697 3.27294 0.734848 3.87988 0.725758L4.60821 0.713636V1.65606C4.60821 2.69848 4.61477 2.73182 4.8149 2.92879C4.97237 3.08333 5.14297 3.14394 5.41856 3.14394C5.65149 3.14394 5.65805 3.14697 5.67774 3.22879C5.78929 3.69545 6.08455 4.09545 6.50121 4.34394C7.07535 4.68636 7.91522 4.68636 8.48936 4.34394C8.90601 4.09545 9.20128 3.69545 9.31283 3.22879C9.33251 3.14697 9.33907 3.14394 9.56545 3.14394C9.83119 3.14394 9.98867 3.09242 10.1494 2.95303C10.3758 2.75303 10.3824 2.72273 10.3824 1.66515V0.713636L11.114 0.725758C11.9178 0.737879 12.0063 0.756061 12.213 0.940909C12.3508 1.06212 12.423 1.18333 12.4525 1.34091C12.4624 1.40758 12.4755 2.82273 12.4788 4.48636L12.482 7.50758H11.1763ZM12.4066 14.3106C12.3279 14.4742 12.1671 14.6227 11.9899 14.7015C11.8554 14.7561 11.7701 14.7652 11.114 14.7742L10.3824 14.7864V13.8348C10.3824 12.7773 10.3758 12.747 10.1494 12.547C9.98867 12.4076 9.83119 12.3561 9.56545 12.3561C9.33907 12.3561 9.33251 12.353 9.31283 12.2742C9.20128 11.8045 8.90601 11.4045 8.48936 11.1561C7.91522 10.8136 7.07535 10.8136 6.50121 11.1561C6.08455 11.4045 5.78929 11.8045 5.67774 12.2742C5.65805 12.353 5.65149 12.3561 5.41856 12.3561C5.14297 12.3561 4.97237 12.4167 4.8149 12.5712C4.61477 12.7682 4.60821 12.8015 4.60821 13.8439V14.7864L3.87988 14.7742C3.27294 14.7652 3.1253 14.753 3.01704 14.7106C2.83988 14.6379 2.67912 14.4924 2.59382 14.3258C2.52492 14.1894 2.52492 14.1773 2.51508 11.0924L2.50524 7.99242H3.81426H5.12329L5.17578 8.22879C5.3595 9.01667 6.04519 9.67121 6.89162 9.87121C7.2361 9.95303 7.75446 9.95303 8.09895 9.87121C8.73869 9.7197 9.31283 9.29545 9.60482 8.75606C9.6934 8.59242 9.7787 8.37727 9.81151 8.23485L9.86728 7.99242H11.1763H12.4853L12.4755 11.0924C12.4656 13.9985 12.4624 14.1955 12.4066 14.3106ZM9.82135 2.47727C9.74917 2.66212 9.78198 2.65909 7.49528 2.65909C5.20859 2.65909 5.2414 2.66212 5.16922 2.47727C5.14626 2.41061 5.13313 2.08939 5.13313 1.55V0.719697L7.49528 0.719697L9.85744 0.719697V1.55C9.85744 2.08939 9.84431 2.41061 9.82135 2.47727ZM7.49528 14.7803H5.13313V13.95C5.13313 13.0227 5.14626 12.95 5.31685 12.8833C5.46121 12.8288 9.48671 12.8197 9.66059 12.8742C9.84431 12.9348 9.85416 12.9985 9.85744 13.9409V14.7803H7.49528ZM7.492 7.50758L5.68758 7.50758L5.70727 7.44091C5.8549 6.94394 6.0944 6.61061 6.48153 6.37121C6.82601 6.15303 7.0327 6.09848 7.49528 6.09848C7.95459 6.09848 8.16128 6.15303 8.50248 6.36212C8.86008 6.58333 9.13895 6.93788 9.25049 7.31667C9.27346 7.39545 9.29642 7.47121 9.29642 7.48636C9.29971 7.49848 8.48608 7.50758 7.492 7.50758ZM9.198 8.32273C9.07989 8.63788 8.82399 8.93788 8.4992 9.13788C8.16128 9.34697 7.95459 9.40152 7.49528 9.40152C7.03598 9.40152 6.82929 9.34697 6.49137 9.13788C6.08784 8.88939 5.83522 8.54394 5.71055 8.07727L5.69086 7.99242L7.49528 7.99242H9.29971L9.28002 8.07727C9.2669 8.12273 9.23081 8.23182 9.198 8.32273ZM8.64027 3.44091C8.52216 3.66212 8.27611 3.87727 8.02021 3.98939C7.86273 4.05909 7.79711 4.06818 7.49528 4.06818C7.19345 4.06818 7.12784 4.05909 6.97036 3.98939C6.71446 3.87727 6.4684 3.66212 6.3503 3.44091C6.17313 3.11667 6.06487 3.14394 7.49528 3.14394C8.9257 3.14394 8.81743 3.11667 8.64027 3.44091ZM7.49528 12.3561C6.07799 12.3561 6.18298 12.3803 6.33061 12.0894C6.4356 11.8803 6.7243 11.6167 6.96052 11.5136C7.13112 11.4409 7.19017 11.4318 7.49528 11.4318C7.79711 11.4318 7.86273 11.4409 8.02021 11.5106C8.27611 11.6227 8.52216 11.8379 8.64027 12.0591C8.81743 12.3833 8.9257 12.3561 7.49528 12.3561Z" fill="#A0A0A0"/>
</svg>
