<svg width="15" height="16" viewBox="0 0 15 16" fill="none" xmlns="http://www.w3.org/2000/svg">
<path d="M12.4405 0.3125C12.381 0.25 12.3423 0.25 7.5 0.25C2.65774 0.25 2.61905 0.25 2.55952 0.3125C2.5 0.375 2.5 0.415625 2.5 7.75C2.5 15.0844 2.5 15.125 2.55952 15.1875C2.61905 15.25 2.65774 15.25 7.5 15.25C12.3423 15.25 12.381 15.25 12.4405 15.1875C12.5 15.125 12.5 15.0844 12.5 7.75C12.5 0.415625 12.5 0.375 12.4405 0.3125ZM11.7857 1.5L11.5476 1.5V1.125V0.75H11.7857L12.0238 0.75V1.125V1.5H11.7857ZM11.7857 6.5H11.5476V4.25V2L11.7857 2H12.0238V4.25V6.5H11.7857ZM11.7857 8.5H11.5476V7.75V7H11.7857H12.0238V7.75V8.5H11.7857ZM11.7857 13.5H11.5476V11.25V9H11.7857H12.0238V11.25V13.5H11.7857ZM11.7857 14.75H11.5476V14.375V14H11.7857H12.0238V14.375V14.75H11.7857ZM9.40476 1.5L7.7381 1.5V1.125V0.75L9.40476 0.75H11.0714V1.125V1.5H9.40476ZM9.40476 6.5H7.7381V4.25V2L9.40476 2H11.0714V4.25V6.5L9.40476 6.5ZM7.5 8.5H3.92857V7.75V7H7.5L11.0714 7V7.75V8.5H7.5ZM9.40476 13.5H7.7381V11.25V9H9.40476H11.0714V11.25V13.5H9.40476ZM9.40476 14.75H7.7381V14.375V14H9.40476H11.0714V14.375V14.75H9.40476ZM5.59524 1.5L3.92857 1.5V1.125V0.75L5.59524 0.75H7.26191V1.125V1.5H5.59524ZM5.59524 6.5H3.92857L3.92857 4.25V2H5.59524H7.26191V4.25V6.5H5.59524ZM5.59524 13.5H3.92857V11.25L3.92857 9H5.59524H7.26191V11.25V13.5H5.59524ZM5.59524 14.75H3.92857V14.375V14H5.59524H7.26191V14.375V14.75H5.59524ZM3.21429 1.5H2.97619V1.125V0.75H3.21429H3.45238V1.125V1.5H3.21429ZM3.21429 6.5H2.97619L2.97619 4.25V2H3.21429H3.45238V4.25L3.45238 6.5H3.21429ZM3.21429 8.5H2.97619V7.75V7H3.21429H3.45238V7.75V8.5H3.21429ZM3.21429 13.5H2.97619V11.25L2.97619 9H3.21429H3.45238L3.45238 11.25V13.5H3.21429ZM3.21429 14.75H2.97619V14.375V14H3.21429H3.45238V14.375V14.75H3.21429Z" fill="#A0A0A0"/>
</svg>
