<svg width="15" height="14" viewBox="0 0 15 14" fill="none" xmlns="http://www.w3.org/2000/svg">
<path d="M13.3571 11.0005H12.0238V9.00046C12.0238 8.82365 11.9535 8.65408 11.8285 8.52906C11.7035 8.40403 11.5339 8.3338 11.3571 8.3338H8.02376V6.52713L8.7771 6.92046C8.88696 6.97793 9.01067 7.00363 9.13433 6.99466C9.25799 6.98569 9.3767 6.94242 9.47712 6.8697C9.57754 6.79698 9.65569 6.6977 9.7028 6.58301C9.7499 6.46832 9.76409 6.34277 9.74376 6.22046L9.4771 4.64046L10.6238 3.51379C10.7106 3.42898 10.7727 3.32207 10.8032 3.20458C10.8337 3.0871 10.8316 2.9635 10.7971 2.84713C10.7585 2.72864 10.6874 2.62336 10.5919 2.54323C10.4965 2.4631 10.3805 2.41133 10.2571 2.3938L8.69043 2.14713L7.9571 0.707128C7.90251 0.594414 7.81727 0.499356 7.71116 0.432844C7.60504 0.366331 7.48233 0.331055 7.3571 0.331055C7.23186 0.331055 7.10915 0.366331 7.00304 0.432844C6.89692 0.499356 6.81169 0.594414 6.7571 0.707128L6.02376 2.14713L4.43043 2.38046C4.30704 2.398 4.19105 2.44977 4.0956 2.5299C4.00015 2.61003 3.92907 2.71531 3.89043 2.83379C3.85589 2.95017 3.85378 3.07376 3.88432 3.19125C3.91487 3.30873 3.97691 3.41565 4.06376 3.50046L5.2371 4.64046L4.97043 6.22046C4.95011 6.34277 4.96429 6.46832 5.0114 6.58301C5.0585 6.6977 5.13665 6.79698 5.23707 6.8697C5.33749 6.94242 5.4562 6.98569 5.57986 6.99466C5.70352 7.00363 5.82724 6.97793 5.9371 6.92046L6.69043 6.52713V8.3338H3.3571C3.18029 8.3338 3.01072 8.40403 2.88569 8.52906C2.76067 8.65408 2.69043 8.82365 2.69043 9.00046V11.0005H1.3571C1.18029 11.0005 1.01072 11.0707 0.885692 11.1957C0.760668 11.3207 0.69043 11.4903 0.69043 11.6671V13.0005C0.69043 13.1773 0.760668 13.3468 0.885692 13.4719C1.01072 13.5969 1.18029 13.6671 1.3571 13.6671C1.53391 13.6671 1.70348 13.5969 1.8285 13.4719C1.95353 13.3468 2.02376 13.1773 2.02376 13.0005V12.3338H4.69043V13.0005C4.69043 13.1773 4.76067 13.3468 4.88569 13.4719C5.01072 13.5969 5.18029 13.6671 5.3571 13.6671C5.53391 13.6671 5.70348 13.5969 5.8285 13.4719C5.95353 13.3468 6.02376 13.1773 6.02376 13.0005V11.6671C6.02376 11.4903 5.95353 11.3207 5.8285 11.1957C5.70348 11.0707 5.53391 11.0005 5.3571 11.0005H4.02376V9.66713H10.6904V11.0005H9.3571C9.18029 11.0005 9.01072 11.0707 8.88569 11.1957C8.76067 11.3207 8.69043 11.4903 8.69043 11.6671V13.0005C8.69043 13.1773 8.76067 13.3468 8.88569 13.4719C9.01072 13.5969 9.18029 13.6671 9.3571 13.6671C9.53391 13.6671 9.70348 13.5969 9.8285 13.4719C9.95353 13.3468 10.0238 13.1773 10.0238 13.0005V12.3338H12.6904V13.0005C12.6904 13.1773 12.7607 13.3468 12.8857 13.4719C13.0107 13.5969 13.1803 13.6671 13.3571 13.6671C13.5339 13.6671 13.7035 13.5969 13.8285 13.4719C13.9535 13.3468 14.0238 13.1773 14.0238 13.0005V11.6671C14.0238 11.4903 13.9535 11.3207 13.8285 11.1957C13.7035 11.0707 13.5339 11.0005 13.3571 11.0005ZM7.3571 4.7538C7.24767 4.75434 7.14006 4.78182 7.04376 4.8338L6.51043 5.1138L6.61043 4.5138C6.62792 4.40766 6.61947 4.29888 6.58581 4.19672C6.55214 4.09456 6.49426 4.00207 6.4171 3.92713L5.98376 3.50046L6.58376 3.41379C6.6911 3.39945 6.79334 3.35918 6.88162 3.29645C6.9699 3.23373 7.04157 3.15044 7.09043 3.05379L7.3571 2.50713L7.62376 3.05379C7.67263 3.15044 7.7443 3.23373 7.83258 3.29645C7.92086 3.35918 8.02309 3.39945 8.13043 3.41379L8.73043 3.50046L8.2971 3.92713C8.21993 4.00207 8.16205 4.09456 8.12838 4.19672C8.09472 4.29888 8.08627 4.40766 8.10376 4.5138L8.20376 5.1138L7.67043 4.8338C7.57413 4.78182 7.46652 4.75434 7.3571 4.7538Z" fill="#097E52"/>
</svg>
