<svg width="15" height="15" viewBox="0 0 15 15" fill="none" xmlns="http://www.w3.org/2000/svg">
<path d="M2.39389 0.0142696C2.15045 0.0704673 2.01 0.248427 2.01 0.507561C2.01 0.694887 2.06305 0.822893 2.18166 0.916556C2.25344 0.969631 2.26281 0.99773 2.25344 1.12574C2.24408 1.26935 2.24096 1.27247 2.10987 1.30994C2.03809 1.33179 1.94445 1.37238 1.90388 1.39736C1.83521 1.44419 1.82585 1.44107 1.72285 1.33179C1.62922 1.23501 1.60737 1.18818 1.59801 1.05081C1.56992 0.763573 1.38577 0.598102 1.08927 0.598102C0.873911 0.598102 0.727219 0.688643 0.633586 0.875968C0.471288 1.21315 0.67416 1.56595 1.04869 1.60029C1.18602 1.60966 1.23284 1.63152 1.32959 1.72518C1.43883 1.82821 1.44195 1.83757 1.39514 1.90626C1.37017 1.94685 1.32959 2.04051 1.30775 2.11232C1.27029 2.24345 1.26717 2.24657 1.1236 2.25594C0.995635 2.2653 0.967545 2.25594 0.914486 2.18413C0.820852 2.06549 0.692887 2.01241 0.502499 2.01241C0.209114 2.01241 0 2.22159 0 2.51195C0 2.8023 0.209114 3.01148 0.502499 3.01148C0.692887 3.01148 0.820852 2.95841 0.914486 2.83977C0.967545 2.76796 0.995635 2.75859 1.1236 2.76796C1.26717 2.77733 1.27029 2.78045 1.30775 2.91158C1.32959 2.98338 1.37017 3.07705 1.39514 3.11763C1.44195 3.18632 1.43883 3.19569 1.32959 3.29872C1.23596 3.38926 1.18602 3.41423 1.05181 3.4236C0.524347 3.47043 0.396381 4.1729 0.873911 4.40082C1.20163 4.55692 1.60425 4.30715 1.60425 3.95123C1.60425 3.82947 1.61986 3.79201 1.71661 3.69522C1.82585 3.58283 1.83521 3.5797 1.90388 3.62654C1.94445 3.65151 2.03809 3.6921 2.10987 3.71395C2.24096 3.75142 2.24408 3.75454 2.25344 3.89816C2.26281 4.02616 2.25344 4.05426 2.18166 4.10734C2.06305 4.201 2.01 4.32901 2.01 4.51946C2.01 4.81605 2.21287 5.01587 2.50937 5.01587C2.80588 5.01587 3.00875 4.81605 3.00875 4.51946C3.00875 4.32901 2.95569 4.201 2.83709 4.10734C2.76531 4.05426 2.75594 4.02616 2.76531 3.89816C2.77467 3.75454 2.77779 3.75142 2.90888 3.71395C2.98066 3.6921 3.0743 3.65151 3.11487 3.62654C3.18353 3.5797 3.1929 3.58283 3.30214 3.69522C3.38953 3.78576 3.4145 3.83572 3.4145 3.92626C3.4145 4.46326 4.13235 4.64122 4.3758 4.16666C4.55682 3.81698 4.3165 3.41736 3.92636 3.41736C3.83273 3.41736 3.78279 3.3955 3.69228 3.30496C3.57992 3.19569 3.57679 3.18632 3.62361 3.11763C3.64858 3.07705 3.68915 2.98338 3.711 2.91158C3.74846 2.78045 3.75158 2.77733 3.89515 2.76796C4.02311 2.75859 4.0512 2.76796 4.10426 2.83977C4.1979 2.95841 4.32586 3.01148 4.51625 3.01148C4.81275 3.01148 5.01251 2.80855 5.01251 2.51195C5.01251 2.21535 4.81275 2.01241 4.51625 2.01241C4.32586 2.01241 4.1979 2.06549 4.10426 2.18413C4.0512 2.25594 4.02311 2.2653 3.89515 2.25594C3.75158 2.24657 3.74846 2.24345 3.711 2.11232C3.68915 2.04051 3.64858 1.94685 3.62361 1.90626C3.57679 1.83757 3.57992 1.82821 3.69228 1.71893C3.78591 1.62839 3.8296 1.60654 3.92948 1.60654C4.26656 1.60654 4.50376 1.28809 4.41637 0.960265C4.30089 0.529416 3.67043 0.463852 3.47068 0.860358C3.43947 0.919678 3.4145 1.02271 3.4145 1.09139C3.4145 1.1913 3.39265 1.23501 3.30214 1.32867C3.1929 1.44107 3.18353 1.44419 3.11487 1.39736C3.0743 1.37238 2.98066 1.33179 2.90888 1.30994C2.77779 1.27247 2.77467 1.26935 2.76531 1.12574C2.75594 0.99773 2.76531 0.969631 2.83709 0.916556C2.95569 0.822893 3.00875 0.694887 3.00875 0.504439C3.00875 0.170374 2.72161 -0.0606608 2.39389 0.0142696ZM2.78403 1.84382C3.26156 2.04051 3.38016 2.67742 3.00563 3.03334C2.54683 3.46731 1.79152 3.14573 1.79152 2.51195C1.79152 2.22784 1.93821 1.99056 2.19726 1.85318C2.33459 1.78138 2.62486 1.77513 2.78403 1.84382Z" fill="#A0A0A0"/>
<path d="M2.25928 2.51195V2.76172H2.50897H2.75866V2.51195V2.26218H2.50897H2.25928V2.51195Z" fill="#A0A0A0"/>
<path d="M12.3814 0.0142696C12.138 0.0704673 11.9975 0.248427 11.9975 0.507561C11.9975 0.694887 12.0506 0.822893 12.1692 0.916556C12.241 0.969631 12.2504 0.99773 12.241 1.12574C12.2316 1.26935 12.2285 1.27247 12.0974 1.30994C12.0256 1.33179 11.932 1.37238 11.8914 1.39736C11.8228 1.44419 11.8134 1.44107 11.7104 1.33179C11.6168 1.23501 11.5949 1.18818 11.5856 1.05081C11.5575 0.763573 11.3733 0.598102 11.0768 0.598102C10.8615 0.598102 10.7148 0.688643 10.6211 0.875968C10.4588 1.21315 10.6617 1.56595 11.0362 1.60029C11.1736 1.60966 11.2204 1.63152 11.3171 1.72518C11.4264 1.82821 11.4295 1.83757 11.3827 1.90626C11.3577 1.94685 11.3171 2.04051 11.2953 2.11232C11.2578 2.24345 11.2547 2.24657 11.1111 2.25594C10.9832 2.2653 10.9551 2.25594 10.902 2.18413C10.8084 2.06549 10.6804 2.01241 10.49 2.01241C10.1967 2.01241 9.98755 2.22159 9.98755 2.51195C9.98755 2.8023 10.1967 3.01148 10.49 3.01148C10.6804 3.01148 10.8084 2.95841 10.902 2.83977C10.9551 2.76796 10.9832 2.75859 11.1111 2.76796C11.2547 2.77733 11.2578 2.78045 11.2953 2.91158C11.3171 2.98338 11.3577 3.07705 11.3827 3.11763C11.4295 3.18632 11.4264 3.19569 11.3171 3.29872C11.2235 3.38926 11.1736 3.41423 11.0394 3.4236C10.5119 3.47043 10.3839 4.1729 10.8615 4.40082C11.1892 4.55692 11.5918 4.30715 11.5918 3.95123C11.5918 3.82947 11.6074 3.79201 11.7042 3.69522C11.8134 3.58283 11.8228 3.5797 11.8914 3.62654C11.932 3.65151 12.0256 3.6921 12.0974 3.71395C12.2285 3.75142 12.2316 3.75454 12.241 3.89816C12.2504 4.02616 12.241 4.05426 12.1692 4.10734C12.0506 4.201 11.9975 4.32901 11.9975 4.51946C11.9975 4.81605 12.2004 5.01587 12.4969 5.01587C12.7934 5.01587 12.9963 4.81605 12.9963 4.51946C12.9963 4.32901 12.9432 4.201 12.8246 4.10734C12.7529 4.05426 12.7435 4.02616 12.7529 3.89816C12.7622 3.75454 12.7653 3.75142 12.8964 3.71395C12.9682 3.6921 13.0618 3.65151 13.1024 3.62654C13.1711 3.5797 13.1804 3.58283 13.2897 3.69522C13.3771 3.78576 13.402 3.83572 13.402 3.92626C13.402 4.46326 14.1199 4.64122 14.3633 4.16666C14.5444 3.81698 14.304 3.41736 13.9139 3.41736C13.8203 3.41736 13.7703 3.3955 13.6798 3.30496C13.5675 3.19569 13.5643 3.18632 13.6112 3.11763C13.6361 3.07705 13.6767 2.98338 13.6986 2.91158C13.736 2.78045 13.7391 2.77733 13.8827 2.76796C14.0107 2.75859 14.0388 2.76796 14.0918 2.83977C14.1854 2.95841 14.3134 3.01148 14.5038 3.01148C14.8003 3.01148 15.0001 2.80855 15.0001 2.51195C15.0001 2.21535 14.8003 2.01241 14.5038 2.01241C14.3134 2.01241 14.1854 2.06549 14.0918 2.18413C14.0388 2.25594 14.0107 2.2653 13.8827 2.25594C13.7391 2.24657 13.736 2.24345 13.6986 2.11232C13.6767 2.04051 13.6361 1.94685 13.6112 1.90626C13.5643 1.83757 13.5675 1.82821 13.6798 1.71893C13.7735 1.62839 13.8172 1.60654 13.917 1.60654C14.2541 1.60654 14.4913 1.28809 14.4039 0.960265C14.2884 0.529416 13.658 0.463852 13.4582 0.860358C13.427 0.919678 13.402 1.02271 13.402 1.09139C13.402 1.1913 13.3802 1.23501 13.2897 1.32867C13.1804 1.44107 13.1711 1.44419 13.1024 1.39736C13.0618 1.37238 12.9682 1.33179 12.8964 1.30994C12.7653 1.27247 12.7622 1.26935 12.7529 1.12574C12.7435 0.99773 12.7529 0.969631 12.8246 0.916556C12.9432 0.822893 12.9963 0.694887 12.9963 0.504439C12.9963 0.170374 12.7092 -0.0606608 12.3814 0.0142696ZM12.7716 1.84382C13.2491 2.04051 13.3677 2.67742 12.9932 3.03334C12.5344 3.46731 11.7791 3.14573 11.7791 2.51195C11.7791 2.22784 11.9258 1.99056 12.1848 1.85318C12.3221 1.78138 12.6124 1.77513 12.7716 1.84382Z" fill="#A0A0A0"/>
<path d="M12.2476 2.51195V2.76172H12.4972H12.7469V2.51195V2.26218H12.4972H12.2476V2.51195Z" fill="#A0A0A0"/>
<path d="M5.72359 0.250749C5.61123 0.294458 5.5176 0.335045 5.51136 0.34129C5.50512 0.347534 5.72672 0.971953 6.00137 1.73062C6.43521 2.92326 6.50387 3.13557 6.50387 3.29479C6.50387 3.8474 6.93146 4.25952 7.50263 4.25952C8.07379 4.25952 8.50138 3.8474 8.50138 3.29479C8.50138 3.13557 8.56693 2.92951 8.98828 1.77433C9.25669 1.03752 9.48453 0.413098 9.49078 0.384999C9.50014 0.347534 9.44708 0.313191 9.26606 0.247627C9.13497 0.200795 9.01949 0.172696 9.007 0.185185C8.99452 0.194551 8.94146 0.328801 8.8884 0.47554L8.78853 0.747162L8.27042 0.756529L7.75232 0.762773V0.513005V0.263237H7.50263H7.25294V0.513005V0.762773L6.73483 0.756529L6.21673 0.747162L6.11373 0.466173C6.05755 0.310069 5.99513 0.182063 5.97016 0.178941C5.94519 0.175818 5.83595 0.207039 5.72359 0.250749ZM7.25294 1.51208V1.76184H6.91586H6.5819L6.51324 1.56515C6.47578 1.459 6.43521 1.3466 6.42584 1.31538C6.404 1.26543 6.43521 1.26231 6.82847 1.26231H7.25294V1.51208ZM8.57941 1.31538C8.57005 1.3466 8.52947 1.459 8.49202 1.56515L8.42336 1.76184H8.0894H7.75232V1.51208V1.26231H8.17679C8.57005 1.26231 8.60126 1.26543 8.57941 1.31538ZM7.25294 2.51115V2.76091H7.1H6.95019L6.86592 2.533C6.82223 2.41124 6.78477 2.29884 6.78477 2.28323C6.78477 2.27075 6.89089 2.26138 7.01886 2.26138H7.25294V2.51115ZM8.22048 2.28948C8.22048 2.30821 8.18303 2.42061 8.13933 2.53925L8.05819 2.76091H7.90525H7.75232V2.51115V2.26138H7.9864C8.11437 2.26138 8.22048 2.27387 8.22048 2.28948ZM7.97079 3.32914C7.97079 3.52895 7.73359 3.72876 7.50263 3.72876C7.27167 3.72876 7.03446 3.52895 7.03446 3.32914C7.03446 3.26045 7.03758 3.26045 7.50263 3.26045C7.96767 3.26045 7.97079 3.26045 7.97079 3.32914Z" fill="#A0A0A0"/>
<path d="M0.0743851 5.07173C0.0119629 5.13417 0.0119629 5.17476 0.0119629 10.0046C0.0119629 14.8345 0.0119629 14.8751 0.0743851 14.9376C0.133686 14.9969 0.177382 15 0.76103 15C1.34468 15 1.38837 14.9969 1.44767 14.9376C1.5101 14.8751 1.5101 14.8345 1.5101 12.6896V10.5042H7.50263H13.4952V12.6896C13.4952 14.8345 13.4952 14.8751 13.5576 14.9376C13.6169 14.9969 13.6606 15 14.2442 15C14.8279 15 14.8716 14.9969 14.9309 14.9376C14.9933 14.8751 14.9933 14.8345 14.9933 10.0046C14.9933 5.17476 14.9933 5.13417 14.9309 5.07173C14.8716 5.01241 14.8279 5.00929 14.2442 5.00929C13.4983 5.00929 13.4952 5.00929 13.4952 5.3215V5.50882H7.50263H1.5101V5.3215C1.5101 5.00929 1.50698 5.00929 0.76103 5.00929C0.177382 5.00929 0.133686 5.01241 0.0743851 5.07173ZM1.01072 10.0046V14.5005H0.76103H0.511341V10.0046V5.50882H0.76103H1.01072V10.0046ZM14.4939 10.0046V14.5005H14.2442H13.9945V10.0046V5.50882H14.2442H14.4939V10.0046ZM2.75854 6.50789V7.00743H2.13432H1.5101V6.50789V6.00836H2.13432H2.75854V6.50789ZM4.25667 6.50789V7.00743H3.7573H3.25792V6.50789V6.00836H3.7573H4.25667V6.50789ZM5.75481 6.50789V7.00743H5.25543H4.75605V6.50789V6.00836H5.25543H5.75481V6.50789ZM7.25294 6.50789V7.00743H6.75356H6.25419V6.50789V6.00836H6.75356H7.25294V6.50789ZM8.75107 6.50789V7.00743H8.2517H7.75232V6.50789V6.00836H8.2517H8.75107V6.50789ZM10.2492 6.50789V7.00743H9.74983H9.25045V6.50789V6.00836H9.74983H10.2492V6.50789ZM11.7473 6.50789V7.00743H11.248H10.7486V6.50789V6.00836H11.248H11.7473V6.50789ZM13.4952 6.50789V7.00743H12.8709H12.2467V6.50789V6.00836H12.8709H13.4952V6.50789ZM2.75854 8.0065V8.50604H2.13432H1.5101V8.0065V7.50697H2.13432H2.75854V8.0065ZM4.25667 8.0065V8.50604H3.7573H3.25792V8.0065V7.50697H3.7573H4.25667V8.0065ZM5.75481 8.0065V8.50604H5.25543H4.75605V8.0065V7.50697H5.25543H5.75481V8.0065ZM7.25294 8.0065V8.50604H6.75356H6.25419V8.0065V7.50697H6.75356H7.25294V8.0065ZM8.75107 8.0065V8.50604H8.2517H7.75232V8.0065V7.50697H8.2517H8.75107V8.0065ZM10.2492 8.0065V8.50604H9.74983H9.25045V8.0065V7.50697H9.74983H10.2492V8.0065ZM11.7473 8.0065V8.50604H11.248H10.7486V8.0065V7.50697H11.248H11.7473V8.0065ZM13.4952 8.0065V8.50604H12.8709H12.2467V8.0065V7.50697H12.8709H13.4952V8.0065ZM2.75854 9.50511V10.0046H2.13432H1.5101V9.50511V9.00557H2.13432H2.75854V9.50511ZM4.25667 9.50511V10.0046H3.7573H3.25792V9.50511V9.00557H3.7573H4.25667V9.50511ZM5.75481 9.50511V10.0046H5.25543H4.75605V9.50511V9.00557H5.25543H5.75481V9.50511ZM7.25294 9.50511V10.0046H6.75356H6.25419V9.50511V9.00557H6.75356H7.25294V9.50511ZM8.75107 9.50511V10.0046H8.2517H7.75232V9.50511V9.00557H8.2517H8.75107V9.50511ZM10.2492 9.50511V10.0046H9.74983H9.25045V9.50511V9.00557H9.74983H10.2492V9.50511ZM11.7473 9.50511V10.0046H11.248H10.7486V9.50511V9.00557H11.248H11.7473V9.50511ZM13.4952 9.50511V10.0046H12.8709H12.2467V9.50511V9.00557H12.8709H13.4952V9.50511Z" fill="#A0A0A0"/>
<path d="M3.67608 11.5907C3.14862 11.7749 2.78033 12.1433 2.59618 12.6709C2.52127 12.8863 2.50879 12.9738 2.50879 13.2516C2.50879 13.5295 2.52127 13.6169 2.59618 13.8323C2.78345 14.3631 3.16734 14.7409 3.70417 14.9219C3.93202 14.9969 3.96635 15 4.74663 15C5.39582 15 5.58933 14.9906 5.72665 14.95C6.36648 14.7627 6.83777 14.2507 6.98446 13.5857L7.00319 13.5014H8.50132H9.99946V13.6887C9.99946 14.0165 9.93391 14.0009 11.2479 14.0009C12.3309 14.0009 12.3746 13.9978 12.4339 13.9385C12.4932 13.8792 12.4963 13.8355 12.4963 13.2516C12.4963 12.6678 12.4932 12.6241 12.4339 12.5648C12.3746 12.5054 12.3309 12.5023 11.2479 12.5023C9.93391 12.5023 9.99946 12.4867 9.99946 12.8145V13.0019H8.50132H7.00319L6.98446 12.9144C6.87834 12.4336 6.59432 12.0153 6.20106 11.7655C6.11367 11.7062 5.93577 11.625 5.8078 11.5813C5.57996 11.5064 5.54563 11.5033 4.74975 11.5033C3.93202 11.5033 3.92889 11.5033 3.67608 11.5907ZM4.5063 12.2526V12.5023H4.25661H4.00692V12.2713V12.0371L4.14113 12.0246C4.21292 12.0184 4.32528 12.0122 4.39082 12.009L4.5063 12.0028V12.2526ZM5.44575 12.034C5.49881 12.034 5.50506 12.0621 5.50506 12.2682V12.5023H5.25537H5.00568V12.2494V11.9934L5.19607 12.0153C5.30218 12.0246 5.41454 12.034 5.44575 12.034ZM3.50754 12.393C3.50754 12.4992 3.50442 12.5023 3.39206 12.5023H3.27658L3.3827 12.393C3.442 12.3337 3.49194 12.2838 3.49818 12.2838C3.50442 12.2838 3.50754 12.3337 3.50754 12.393ZM6.12928 12.393L6.2354 12.5023H6.11991C6.00755 12.5023 6.00443 12.4992 6.00443 12.393C6.00443 12.3337 6.00755 12.2838 6.0138 12.2838C6.02004 12.2838 6.06998 12.3337 6.12928 12.393ZM3.50754 13.2516V13.5014H3.27346H3.03938V13.2516V13.0019H3.27346H3.50754V13.2516ZM4.5063 13.2516V13.5014H4.25661H4.00692V13.2516V13.0019H4.25661H4.5063V13.2516ZM5.50506 13.2516V13.5014H5.25537H5.00568V13.2516V13.0019H5.25537H5.50506V13.2516ZM6.4726 13.2516V13.5014H6.23852H6.00443V13.2516V13.0019H6.23852H6.4726V13.2516ZM11.997 13.2516V13.5014H11.2479H10.4988V13.2516V13.0019H11.2479H11.997V13.2516ZM3.50754 14.1102C3.50754 14.1695 3.50442 14.2195 3.49818 14.2195C3.49194 14.2195 3.442 14.1695 3.3827 14.1102L3.27658 14.0009H3.39206C3.50442 14.0009 3.50754 14.0041 3.50754 14.1102ZM4.5063 14.2507C4.5063 14.5348 4.53127 14.5161 4.19731 14.4817L4.00692 14.4599V14.232V14.0009H4.25661H4.5063V14.2507ZM5.50506 14.2351C5.50506 14.4411 5.49881 14.4692 5.44575 14.4692C5.41454 14.4692 5.30218 14.4786 5.19607 14.488L5.00568 14.5098V14.2538V14.0009H5.25537H5.50506V14.2351ZM6.22291 14.0103C6.22291 14.0165 6.17297 14.0665 6.11367 14.1258L6.00443 14.232V14.1164C6.00443 14.0041 6.00755 14.0009 6.11367 14.0009C6.17297 14.0009 6.22291 14.0041 6.22291 14.0103Z" fill="#A0A0A0"/>
</svg>
