<svg width="15" height="16" viewBox="0 0 15 16" fill="none" xmlns="http://www.w3.org/2000/svg">
<path d="M0.129656 15.304C0.0885498 15.3221 0.0437071 15.3522 0.0287595 15.3703C-0.0198202 15.4276 -0.00487262 15.6144 0.0586547 15.6837C0.114708 15.75 0.122182 15.75 1.19467 15.75C2.25969 15.75 2.27837 15.75 2.35311 15.6837C2.45774 15.5903 2.45027 15.4336 2.33443 15.3432L2.24474 15.2679H1.22457C0.533241 15.2709 0.181972 15.2799 0.129656 15.304Z" fill="#A0A0A0"/>
<path d="M5.91551 0.345574C5.86693 0.396445 5.82583 0.502426 5.81461 0.612646C5.8034 0.714388 5.76977 1.05353 5.73614 1.36723C5.57545 2.8976 5.19803 4.40253 4.65244 5.67854L4.42823 6.20421L2.59714 6.21269C0.930488 6.22117 0.754854 6.22965 0.624062 6.29747C0.429743 6.39922 0.198056 6.64933 0.100896 6.85282L0.0186845 7.02662L0.0074738 10.5834L0 14.1358L0.0859487 14.3563C0.186845 14.6022 0.362479 14.8141 0.579219 14.9455C0.724958 15.0388 0.766064 15.0388 2.53362 15.0515L4.3348 15.0642L4.42823 14.9583L4.52165 14.8523L4.76455 14.9795C5.29519 15.2635 5.0336 15.2465 9.08066 15.2635C12.9259 15.2762 13.0455 15.272 13.3519 15.0939C13.5799 14.9625 13.8041 14.7039 13.9199 14.4368C14.0171 14.2206 14.0283 14.1443 14.0321 13.8052C14.0321 13.4406 14.0246 13.3982 13.8938 13.1142L13.7555 12.809L13.9162 12.6309C14.0022 12.5292 14.1255 12.3342 14.1853 12.1943C14.2824 11.9696 14.2936 11.9018 14.2936 11.516C14.2936 11.126 14.2862 11.0709 14.1815 10.8462L14.0694 10.6003L14.275 10.3629C14.5365 10.0577 14.63 9.78213 14.6225 9.33701C14.6187 9.00211 14.5552 8.73928 14.4207 8.52732L14.3422 8.40014L14.5179 8.20937C14.7794 7.92535 14.8915 7.61588 14.8878 7.19619C14.8803 6.72564 14.7757 6.42041 14.5141 6.1279C14.3833 5.98801 14.2451 5.88203 14.1068 5.82268C13.9013 5.73366 13.8452 5.73366 11.136 5.73366C9.61504 5.73366 8.37065 5.72094 8.37065 5.70822C8.37065 5.6955 8.41176 5.52593 8.46034 5.33517C8.63971 4.66113 8.68082 4.35166 8.68082 3.63523C8.67708 3.26217 8.65839 2.82553 8.63597 2.6602C8.44165 1.35875 7.46259 0.349813 6.31536 0.277746C6.03135 0.256549 5.99025 0.265028 5.91551 0.345574ZM7.02163 1.18071C7.35422 1.36723 7.66812 1.70637 7.83628 2.07095C8.02312 2.47367 8.07918 2.81705 8.08665 3.59284C8.09039 4.19905 8.07918 4.31775 7.98949 4.71624C7.93344 4.96211 7.8288 5.33093 7.7578 5.54289C7.60085 5.98377 7.59338 6.11943 7.70549 6.23813C7.78396 6.32291 7.84001 6.32291 10.7772 6.33563C13.6434 6.34835 13.7779 6.35258 13.9162 6.42889C14.0844 6.52639 14.2637 6.78923 14.2974 6.99271C14.3534 7.32761 14.1105 7.75154 13.8078 7.84904C13.7256 7.87447 13.4865 7.89567 13.2772 7.89567C12.911 7.89567 12.896 7.89991 12.8213 8.00589C12.7765 8.06948 12.7428 8.17122 12.7428 8.23481C12.7428 8.2984 12.7765 8.40014 12.8213 8.46373C12.8923 8.56547 12.9222 8.57395 13.1651 8.57395C13.4715 8.57395 13.6733 8.66297 13.834 8.85374C14.0246 9.0869 14.0657 9.39212 13.9386 9.67191C13.7817 10.028 13.5313 10.1425 12.9297 10.1425C12.612 10.1425 12.5971 10.1467 12.5186 10.2569C12.4551 10.346 12.4439 10.4095 12.4588 10.524C12.4925 10.7572 12.5896 10.8207 12.9259 10.8207C13.251 10.8207 13.4827 10.9183 13.5836 11.0921C13.7705 11.4185 13.7144 11.8848 13.4528 12.1519C13.3706 12.2367 13.2996 12.3087 13.2921 12.3087C13.2884 12.313 13.0642 12.3257 12.7951 12.3426C12.2159 12.3723 12.1449 12.4105 12.1449 12.7072C12.1449 12.9785 12.2271 13.0336 12.6419 13.0676C13.0268 13.0972 13.0941 13.1269 13.2585 13.3389C13.5612 13.7331 13.4491 14.2927 13.0231 14.5131C12.8811 14.5894 12.683 14.5937 9.24883 14.5937C5.18308 14.5937 5.4484 14.6149 4.85797 14.2757L4.52165 14.085V10.7741V7.46327L4.77202 6.96728C5.63151 5.27158 6.17336 3.35544 6.40878 1.17223L6.43494 0.951786L6.58815 0.989939C6.6741 1.01114 6.86842 1.10016 7.02163 1.18071ZM3.86769 7.14108C3.85648 7.26402 3.84527 7.4124 3.84901 7.47175C3.85274 7.5311 3.86395 9.10809 3.87143 10.9818L3.88637 14.386L2.40283 14.3732C1.03886 14.3605 0.908066 14.352 0.814644 14.2842C0.586693 14.1062 0.594167 14.2461 0.605378 10.5664L0.616588 7.20891L0.754854 7.06478L0.896856 6.92064H2.39535H3.89759L3.86769 7.14108Z" fill="#A0A0A0"/>
</svg>
