<svg width="16" height="16" viewBox="0 0 16 16" fill="none" xmlns="http://www.w3.org/2000/svg">
<g clip-path="url(#clip0_126_13010)">
<path d="M2.81445 0.814329C2.48633 0.937376 2.25195 1.1571 2.09961 1.47937L2.00879 1.67273V8.33777V15.0028L2.08496 15.1669C2.18164 15.369 2.35156 15.5448 2.55664 15.6532L2.71191 15.7352L7.79492 15.744C11.5654 15.7499 12.9102 15.744 13.001 15.7177C13.168 15.6708 13.3555 15.5067 13.4375 15.328C13.502 15.1903 13.5078 15.1405 13.5078 14.7098V14.2382L13.6602 14.1385C13.7539 14.0741 13.8477 13.9803 13.9033 13.8925L13.9912 13.7489L14 7.54089L14.0059 1.33288L13.9443 1.18933C13.877 1.0282 13.7012 0.855345 13.5488 0.790892C13.4668 0.755736 12.6436 0.749876 8.21387 0.752806H2.97559L2.81445 0.814329ZM13.417 1.35339L13.4785 1.43249V7.50867V13.5848L13.4053 13.6552L13.335 13.7284H8.12598C2.79688 13.7284 2.81152 13.7284 2.57422 13.8309C2.52441 13.8514 2.52148 13.5555 2.52148 7.85144V1.84851L2.5918 1.70202C2.66211 1.54675 2.82617 1.38269 2.97266 1.31824C3.04883 1.28601 3.97461 1.28015 8.21094 1.27722H13.3584L13.417 1.35339ZM12.9805 14.663C12.9805 15.0292 12.9746 15.076 12.9189 15.1464L12.8604 15.2225H7.87402H2.8877L2.77051 15.1552C2.5625 15.038 2.45996 14.7479 2.5625 14.5546C2.62109 14.4432 2.76172 14.3173 2.86133 14.285C2.9082 14.2733 5.20508 14.2587 7.96484 14.2587L12.9805 14.2557V14.663Z" fill="#A0A0A0"/>
<path d="M3.08398 2.05365L2.99023 2.13275V2.87396V3.61517L3.08105 3.69135C3.20117 3.79388 3.32422 3.79095 3.43262 3.68256L3.51758 3.5976V2.87689C3.51758 2.17377 3.51758 2.15912 3.45312 2.08295C3.41211 2.039 3.3418 2.00092 3.28027 1.99213C3.19824 1.97748 3.16016 1.9892 3.08398 2.05365Z" fill="#A0A0A0"/>
<path d="M4.5957 2.50486C4.4668 2.54587 4.34961 2.64548 4.29688 2.75388C4.25586 2.83884 4.25 2.99119 4.25 3.8613V4.87205L4.32031 4.9365C4.42285 5.03318 4.58398 5.02732 4.68652 4.92771C4.75977 4.85154 4.7627 4.83689 4.77148 4.44138C4.7832 4.05173 4.78613 4.03122 4.8418 4.03122C4.93555 4.03122 5.09082 4.13962 5.16406 4.25681C5.21387 4.34177 5.23145 4.42087 5.24023 4.62009C5.25195 4.83982 5.26367 4.88669 5.31934 4.93943C5.43652 5.05076 5.65918 5.01853 5.72949 4.88083C5.8291 4.68747 5.75586 4.18064 5.59473 3.94919L5.50684 3.82029L5.59473 3.72068C5.82324 3.46287 5.81738 3.02341 5.58301 2.74802C5.43945 2.5781 5.24023 2.499 4.93848 2.48728C4.79492 2.48435 4.63965 2.49314 4.5957 2.50486ZM5.09668 3.04685C5.1875 3.09665 5.25195 3.21677 5.22559 3.29001C5.18164 3.41892 5.09375 3.47458 4.93262 3.47458H4.77734V3.24021V3.00583H4.89453C4.96191 3.00583 5.0498 3.02341 5.09668 3.04685Z" fill="#A0A0A0"/>
<path d="M6.33594 2.55168L6.24219 2.63078V3.52726C6.24219 4.40617 6.24512 4.42961 6.3125 4.57316C6.38574 4.7343 6.5498 4.89543 6.70508 4.95988C6.97461 5.07121 7.3877 4.97453 7.5752 4.7548C7.75391 4.5468 7.76562 4.47062 7.76562 3.51555V2.65715L7.69531 2.57512C7.5957 2.46086 7.4082 2.46086 7.30859 2.57512L7.23828 2.65715V3.49211V4.32707L7.16504 4.39738C7.07422 4.49113 6.91895 4.49699 6.83984 4.4091C6.78711 4.35344 6.78418 4.28019 6.76953 3.48625C6.75488 2.66887 6.75195 2.62492 6.69336 2.56633C6.66113 2.5341 6.58789 2.49894 6.53223 2.49015C6.4502 2.47551 6.41211 2.48722 6.33594 2.55168Z" fill="#A0A0A0"/>
<path d="M8.39258 2.50781C8.2373 2.57226 8.23438 2.59277 8.23438 3.63574C8.23438 4.58203 8.2373 4.60839 8.30176 4.73437C8.38672 4.90429 8.5127 4.98632 8.73242 5.01269C8.97266 5.04199 9.12793 5.00976 9.20117 4.91894C9.2832 4.81347 9.27734 4.66113 9.18652 4.57324C9.12793 4.51171 9.08691 4.5 8.9375 4.5H8.76172V3.58007C8.76172 2.66601 8.76172 2.65722 8.69727 2.58398C8.62402 2.49902 8.48633 2.46679 8.39258 2.50781Z" fill="#A0A0A0"/>
<path d="M10.0655 2.52224C9.91902 2.57498 9.7989 2.70388 9.75789 2.85916C9.73738 2.93826 9.72859 3.27224 9.73445 3.82302L9.74324 4.66677L9.82234 4.78396C9.93367 4.95388 10.0655 5.00662 10.4317 5.02126C10.8946 5.04177 11.0528 4.94509 11.003 4.68435C10.9737 4.53201 10.9005 4.49978 10.5577 4.49978H10.2559V4.25076V4.00173H10.4434C10.6134 4.00173 10.6397 3.99294 10.6925 3.92556C10.7803 3.81423 10.7745 3.65017 10.6807 3.56228C10.6251 3.50955 10.5635 3.48904 10.4317 3.48025L10.2559 3.46853V3.23709V3.00564H10.5577C10.8682 3.00271 10.921 2.98806 10.9825 2.86794C11.0382 2.76834 11.0235 2.6658 10.9473 2.57498C10.877 2.49587 10.8682 2.49294 10.5284 2.48709C10.2823 2.48123 10.1475 2.49001 10.0655 2.52224Z" fill="#A0A0A0"/>
<path d="M11.9903 2.53401C11.3956 2.73909 11.3107 3.58284 11.8527 3.89925C11.9259 3.94319 12.0607 3.98714 12.1661 4.00178C12.3097 4.02229 12.3653 4.04573 12.4181 4.10432C12.5001 4.20393 12.5001 4.30061 12.4122 4.40022C12.3448 4.47932 12.3331 4.48225 11.9698 4.49983C11.6241 4.51448 11.5948 4.52034 11.5421 4.58479C11.4103 4.74593 11.5128 4.97151 11.7355 5.01546C11.8966 5.04475 12.4298 5.0096 12.547 4.95979C13.0509 4.74886 13.171 4.0428 12.7609 3.68245C12.6232 3.56233 12.5089 3.51253 12.3068 3.48616C12.0372 3.451 11.9347 3.27522 12.0841 3.10237C12.1544 3.02327 12.1632 3.02034 12.5265 3.00569C12.8722 2.99104 12.9015 2.98518 12.9542 2.92073C13.0392 2.81526 13.0275 2.66585 12.9249 2.56331C12.84 2.47835 12.837 2.47835 12.4913 2.47835C12.2335 2.48128 12.1046 2.493 11.9903 2.53401Z" fill="#A0A0A0"/>
<path d="M3.12207 4.27133C2.9873 4.35043 2.99316 4.16 2.99023 8.75668V13.1161L3.06348 13.1864C3.17188 13.2977 3.3418 13.2889 3.44141 13.1688L3.51758 13.078V8.74203V4.40609L3.43262 4.32113C3.3418 4.23031 3.22754 4.21273 3.12207 4.27133Z" fill="#A0A0A0"/>
<path d="M4.79199 6.28418C4.65137 6.34863 4.58984 6.41309 4.52832 6.55957C4.49023 6.65039 4.48438 6.85547 4.48438 7.89258C4.48438 9.11719 4.48438 9.12012 4.55176 9.24609C4.59863 9.33398 4.66016 9.39551 4.74805 9.44238L4.87402 9.50977H8.50684H12.1396L12.2656 9.43652C12.3477 9.38965 12.4092 9.32227 12.4502 9.2373C12.5088 9.11426 12.5117 9.07031 12.5117 7.875C12.5117 7.07227 12.5 6.6123 12.4795 6.55957C12.4355 6.44238 12.3389 6.3457 12.2041 6.28418C12.0928 6.23145 11.9258 6.22852 8.49805 6.22852C5.07617 6.22852 4.90332 6.23145 4.79199 6.28418ZM11.9844 7.86914V8.98242H8.49805H5.01172V7.86914V6.75586H8.49805H11.9844V7.86914Z" fill="#A0A0A0"/>
<path d="M5.81744 10.8135C5.73541 10.8926 5.71783 11.0713 5.78228 11.1533C5.87018 11.2676 5.87018 11.2676 8.4981 11.2676C11.2051 11.2676 11.1817 11.2676 11.2344 11.1357C11.2754 11.0273 11.252 10.8838 11.1788 10.8135L11.1085 10.7402H8.4981H5.88775L5.81744 10.8135Z" fill="#A0A0A0"/>
<path d="M6.5644 12.0586C6.42084 12.2021 6.47944 12.4424 6.6728 12.4951C6.74604 12.5156 7.3935 12.5273 8.52143 12.5273C9.93061 12.5273 10.2763 12.5186 10.3554 12.4863C10.5253 12.416 10.5664 12.1934 10.4316 12.0586C10.373 12 10.3261 12 8.49799 12C6.66987 12 6.62299 12 6.5644 12.0586Z" fill="#A0A0A0"/>
</g>
<defs>
<clipPath id="clip0_126_13010">
<rect width="15" height="15" fill="white" transform="translate(0.5 0.75)"/>
</clipPath>
</defs>
</svg>
